<?xml version="1.0" encoding="UTF-8"?>
<svg version="1.1" xmlns="http://www.w3.org/2000/svg" width="444" height="106">
<path d="M0 0 C0.82588623 0.21897949 0.82588623 0.21897949 1.66845703 0.44238281 C4.62604169 1.14972557 7.26558202 1.02298801 10.3046875 0.921875 C12.13966797 0.88320313 12.13966797 0.88320313 14.01171875 0.84375 C16.57985927 0.7814291 19.14766817 0.7033916 21.71484375 0.609375 C32.18654038 0.43319504 32.18654038 0.43319504 35.73828125 3.23046875 C37.73804288 5.67922695 39.15869378 7.63986309 40.3125 10.5625 C40.61800781 11.30628906 40.92351562 12.05007812 41.23828125 12.81640625 C44.99939641 23.59826971 43.79167706 35.73212059 39 46 C35.15088047 51.78620355 30.90089848 56.30305775 24 58 C16.84528871 58.63291677 9.2540265 59.02146784 3 55 C-4.50540354 48.54430325 -7.19691943 39.79581926 -8.5078125 30.28515625 C-8.82377298 27.81464764 -8.82377298 27.81464764 -11 26 C-12.38794275 18.40283969 -10.13092338 12.31393167 -6 6 C-4.42767911 4.10101965 -2.87782298 2.61701423 -1 1 C-0.67 0.67 -0.34 0.34 0 0 Z M2 4 C0.02 6.97 0.02 6.97 -2 10 C-1.67 10.66 -1.34 11.32 -1 12 C0.32 10.02 1.64 8.04 3 6 C2.67 5.34 2.34 4.68 2 4 Z M-3 12 C-2 14 -2 14 -2 14 Z M-4 14 C-5.87543354 17.86763446 -5.87543354 17.86763446 -5 22 C-3.12456646 18.13236554 -3.12456646 18.13236554 -4 14 Z M20 34 C19.67 34.99 19.34 35.98 19 37 C27.415 36.01 27.415 36.01 36 35 C35.67 34.01 35.34 33.02 35 32 C29.7991707 29.39958535 24.63564095 31.0199451 20 34 Z M25.3125 38.9375 C18.04576273 40.7603011 10.43417424 40.15363391 3 40 C1.65630966 43.00640417 1.65630966 43.00640417 3.0625 46 C5.40322812 49.62435322 7.03215018 50.39696998 11 52 C16.73311818 52.72315468 23.65144487 53.44290705 28.75 50.25 C31.78679793 47.21320207 32.92924132 45.55669096 33.125 41.25 C33.08375 40.5075 33.0425 39.765 33 39 C29.7698803 37.98033749 28.81521211 38.04697997 25.3125 38.9375 Z " fill="#FFFFFF" transform="translate(64,38)"/>
<path d="M0 0 C1.3303125 0.02126953 1.3303125 0.02126953 2.6875 0.04296875 C4.0178125 0.05263672 4.0178125 0.05263672 5.375 0.0625 C7.6875 0.23046875 7.6875 0.23046875 9.6875 1.23046875 C9.6875 4.53046875 9.6875 7.83046875 9.6875 11.23046875 C12.1625 12.22046875 12.1625 12.22046875 14.6875 13.23046875 C14.6875 15.54046875 14.6875 17.85046875 14.6875 20.23046875 C16.48010132 20.17051553 18.27175795 20.08174465 20.0625 19.98046875 C21.06023437 19.9340625 22.05796875 19.88765625 23.0859375 19.83984375 C23.94445312 19.63875 24.80296875 19.43765625 25.6875 19.23046875 C26.85102352 17.35670521 26.85102352 17.35670521 27.6875 15.23046875 C29.4921875 13.78125 29.4921875 13.78125 31.5625 12.54296875 C32.24054688 12.12660156 32.91859375 11.71023438 33.6171875 11.28125 C38.41755104 8.84483907 43.40032156 8.72473864 48.6875 9.23046875 C53.37452107 10.91072159 56.03720435 13.00962753 58.6875 17.23046875 C59.95106929 21.10541458 59.77962647 22.9336168 58.5625 26.85546875 C56.3293515 30.87513604 54.11784653 33.25833014 49.8125 34.98046875 C41.2392922 35.98908143 34.65728301 33.9299212 27.5625 29.10546875 C26.94375 28.48671875 26.325 27.86796875 25.6875 27.23046875 C25.6875 26.57046875 25.6875 25.91046875 25.6875 25.23046875 C24.6975 25.56046875 23.7075 25.89046875 22.6875 26.23046875 C19.94937393 25.77498698 17.3673824 24.97732122 14.6875 24.23046875 C16.12392065 27.72651902 17.81519602 29.31069381 20.875 31.48046875 C28.85913291 37.50381139 36.87375992 46.00097473 38.6875 56.23046875 C39.91682338 71.82531396 35.66382232 82.36923274 26.6875 95.23046875 C26.3575 95.56046875 26.0275 95.89046875 25.6875 96.23046875 C25.543125 97.36484375 25.39875 98.49921875 25.25 99.66796875 C24.6875 103.23046875 24.6875 103.23046875 22.6875 105.23046875 C16.59155624 106.91084225 10.14331156 106.41475588 3.875 106.41796875 C2.62912109 106.43021484 1.38324219 106.44246094 0.09960938 106.45507812 C-6.39622845 106.46541633 -12.10715629 106.20029555 -18.3125 104.23046875 C-18.498125 102.95171875 -18.68375 101.67296875 -18.875 100.35546875 C-19.98678459 95.2730249 -22.41689819 91.96963401 -25.49609375 87.85546875 C-32.09987809 78.31193525 -34.40976401 68.70070535 -33.3125 57.23046875 C-30.43543881 46.32721349 -24.15436785 37.73741393 -14.875 31.48046875 C-11.45374705 28.94465492 -10.45380172 27.82664586 -9.45703125 23.62109375 C-9.21465966 20.12251258 -9.14529948 16.73184434 -9.3125 13.23046875 C-7.6625 12.57046875 -6.0125 11.91046875 -4.3125 11.23046875 C-4.33570312 10.60398437 -4.35890625 9.9775 -4.3828125 9.33203125 C-4.40085937 8.51476563 -4.41890625 7.6975 -4.4375 6.85546875 C-4.46070312 6.04335937 -4.48390625 5.23125 -4.5078125 4.39453125 C-4.21923703 1.19711501 -3.15519368 0.31445342 0 0 Z M1.6875 4.23046875 C1.6875 5.22046875 1.6875 6.21046875 1.6875 7.23046875 C2.6775 6.90046875 3.6675 6.57046875 4.6875 6.23046875 C4.3575 5.57046875 4.0275 4.91046875 3.6875 4.23046875 C3.0275 4.23046875 2.3675 4.23046875 1.6875 4.23046875 Z M25.6875 21.23046875 C28.28449234 26.91969384 32.32078233 29.93373098 38.0625 32.10546875 C42.71576529 33.47638024 45.97458438 33.40869766 50.6875 32.23046875 C53.44851146 30.40937609 55.20850548 29.18845778 56.6875 26.23046875 C57.20421306 21.75228886 57.02711854 19.75987411 54.5625 15.91796875 C44.47973421 6.49277464 33.90410463 13.25424351 25.6875 21.23046875 Z M6.6875 17.23046875 C10.6875 18.23046875 10.6875 18.23046875 10.6875 18.23046875 Z M14.6875 22.23046875 C14.6875 22.56046875 14.6875 22.89046875 14.6875 23.23046875 C16.6675 23.23046875 18.6475 23.23046875 20.6875 23.23046875 C20.6875 22.90046875 20.6875 22.57046875 20.6875 22.23046875 C18.7075 22.23046875 16.7275 22.23046875 14.6875 22.23046875 Z M-12.05859375 31.65234375 C-20.80278553 39.21626 -29.14397775 47.80925813 -30.625 59.75 C-31.20977126 72.52359729 -25.3664329 84.51792409 -17.6015625 94.41015625 C-15.92273558 96.78086335 -16.23768377 98.38745208 -16.3125 101.23046875 C-13.81982261 103.72314614 -12.35463801 103.46718819 -8.95336914 103.48271179 C-8.22625732 103.47552628 -7.49914551 103.46834076 -6.75 103.4609375 C-6.00290771 103.46047928 -5.25581543 103.46002106 -4.48608398 103.45954895 C-2.90574557 103.4565265 -1.32541014 103.44864039 0.25488281 103.4362793 C2.6778414 103.41804145 5.10041749 103.41576948 7.5234375 103.41601562 C9.05729498 103.41109967 10.59114986 103.40527101 12.125 103.3984375 C12.85211182 103.39732468 13.57922363 103.39621185 14.32836914 103.39506531 C18.1343227 103.42087574 18.1343227 103.42087574 21.6875 102.23046875 C21.914375 101.11671875 22.14125 100.00296875 22.375 98.85546875 C23.24132977 94.99136297 24.80126204 92.26429817 27 88.98046875 C33.51093828 79.16648662 37.89834922 69.17071407 36.125 57.29296875 C33.61377215 46.56620077 26.12944727 37.5594561 17 31.60546875 C13.86015953 29.85596964 13.86015953 29.85596964 11.3515625 31.12890625 C10.47242188 31.49242188 9.59328125 31.8559375 8.6875 32.23046875 C5.78515625 32.49609375 5.78515625 32.49609375 2.75 32.48046875 C1.75097656 32.485625 0.75195312 32.49078125 -0.27734375 32.49609375 C-3.3125 32.23046875 -3.3125 32.23046875 -6.3515625 30.98046875 C-9.36004717 29.86984381 -9.36004717 29.86984381 -12.05859375 31.65234375 Z " fill="#FFFFFF" transform="translate(78.3125,-0.23046875)"/>
<path d="M0 0 C4.82385781 1.83766012 6.26173297 4.8824577 8.30078125 9.35546875 C8.53152344 9.89816406 8.76226562 10.44085938 9 11 C9.680625 10.05125 10.36125 9.1025 11.0625 8.125 C13.98667981 4.5622062 16.5495299 3.8726412 21 3 C21.05441656 4.89551022 21.09298035 6.7914792 21.125 8.6875 C21.14820313 9.74324219 21.17140625 10.79898438 21.1953125 11.88671875 C20.99858729 15.02251859 20.33057654 17.17645373 19 20 C19.99 19.7525 20.98 19.505 22 19.25 C26.07899258 18.66016604 28.70366619 19.86885962 32.30078125 21.69921875 C34.36091075 23.2762834 35.10348556 24.57848676 36 27 C35.80491104 30.18645295 35.4867331 32.28148923 33.6875 34.9375 C32 36 32 36 29.8125 35.6875 C29.214375 35.460625 28.61625 35.23375 28 35 C27.505 33.02 27.505 33.02 27 31 C30.75 29.875 30.75 29.875 33 31 C33 30.34 33 29.68 33 29 C22.81318917 29.70253868 18.34156267 34.43504725 11.7578125 41.953125 C11.17773438 42.62859375 10.59765625 43.3040625 10 44 C10.83144531 43.97679687 11.66289062 43.95359375 12.51953125 43.9296875 C13.60621094 43.91164062 14.69289062 43.89359375 15.8125 43.875 C16.89144531 43.85179687 17.97039062 43.82859375 19.08203125 43.8046875 C22 44 22 44 25 46 C24.46632812 46.3403125 23.93265625 46.680625 23.3828125 47.03125 C18.08875697 50.47513388 13.18806404 54.19437738 8.359375 58.265625 C1.1037372 63.59923954 -8.31453898 63.73945483 -17 63 C-17.99 62.34 -18.98 61.68 -20 61 C-13.375 58 -13.375 58 -10 58 C-9.731875 57.4225 -9.46375 56.845 -9.1875 56.25 C-8 54 -8 54 -6.421875 52.203125 C-4.59778436 49.37678675 -4.81678524 47.82385061 -5.0625 44.5 C-5.27117759 37.72215194 -3.48066658 32.24596407 -1 26 C1.64107354 28.46741391 2.79641403 30.57440916 4 34 C4.37369729 26.52605426 3.04061541 20.17859349 1 13 C-0.8871875 13.12375 -0.8871875 13.12375 -2.8125 13.25 C-6.69727609 13.2293363 -6.69727609 13.2293363 -9.0625 11.4375 C-10.40411569 7.9492992 -9.92678615 5.57474656 -9 2 C-5.4913604 -0.33909307 -4.12910567 -0.41291057 0 0 Z M9 20 C10 22 10 22 10 22 Z M8 22 C7.67 23.65 7.34 25.3 7 27 C7.99 26.67 8.98 26.34 10 26 C9.34 24.68 8.68 23.36 8 22 Z M0 40 C1 43 1 43 1 43 Z " fill="#FFFFFF" transform="translate(127,39)"/>
<path d="M0 0 C1.9375 1.125 1.9375 1.125 3 3 C3.42030443 6.29238472 3.295454 8.33957342 1.9375 11.375 C-0.93947559 13.78794727 -3.37659799 13.2734643 -7 13 C-10.65111665 19.54158399 -10.29887594 25.63879629 -10 33 C-9.01 30.69 -8.02 28.38 -7 26 C-1.29234307 31.70765693 -1.62937136 41.35380217 -1.50390625 48.8984375 C-0.9047588 52.5862133 0.24448302 53.60056374 3 56 C3 56.66 3 57.32 3 58 C3.721875 58.12375 4.44375 58.2475 5.1875 58.375 C7.95721894 58.9904931 10.3970354 59.88444374 13 61 C7.77163515 64.48557656 1.22432648 63.6160847 -4.80078125 62.46484375 C-11.7623913 60.53165006 -16.65018356 57.23214681 -22 52.4375 C-25.18255976 49.58543683 -28.07702974 47.66726236 -32 46 C-28.47320901 43.64880601 -26.97120515 43.78556548 -22.8125 43.875 C-21.72582031 43.89304688 -20.63914062 43.91109375 -19.51953125 43.9296875 C-18.68808594 43.95289063 -17.85664063 43.97609375 -17 44 C-17.75796875 43.16855469 -17.75796875 43.16855469 -18.53125 42.3203125 C-19.1809375 41.59585938 -19.830625 40.87140625 -20.5 40.125 C-21.1496875 39.40570313 -21.799375 38.68640625 -22.46875 37.9453125 C-24 36 -24 36 -24 34 C-24.53625 33.731875 -25.0725 33.46375 -25.625 33.1875 C-27.42594497 32.28702752 -29.19156765 31.31548241 -30.9375 30.3125 C-34.27565483 28.88186222 -35.61053509 28.90340841 -39 30 C-39 30.66 -39 31.32 -39 32 C-38.67 31.34 -38.34 30.68 -38 30 C-36.68 30.33 -35.36 30.66 -34 31 C-34 32.32 -34 33.64 -34 35 C-36.58518155 36.01560704 -37.6468225 36.14715729 -40.25 35.0625 C-42.44895247 32.47087744 -42.69130088 30.36642691 -42.51171875 27.00390625 C-41.78588031 24.16150075 -40.15037709 22.5659061 -37.7890625 20.8984375 C-34.01128597 19.00130081 -30.13898699 19 -26 19 C-26.32742187 18.29488281 -26.65484375 17.58976562 -26.9921875 16.86328125 C-28.08400722 13.76132833 -28.20385396 11.45993947 -28.125 8.1875 C-28.10695313 7.21167969 -28.08890625 6.23585938 -28.0703125 5.23046875 C-28.04710937 4.49441406 -28.02390625 3.75835937 -28 3 C-21.81990533 4.23601893 -19.1882778 6.30095661 -15 11 C-14.608125 9.9275 -14.21625 8.855 -13.8125 7.75 C-10.98407233 1.26434957 -7.09116447 -0.91922502 0 0 Z M-16 22 C-15 25 -15 25 -15 25 Z M-15 25 C-15.66 25.66 -16.32 26.32 -17 27 C-16.01 27 -15.02 27 -14 27 C-14.33 26.34 -14.66 25.68 -15 25 Z " fill="#FFFFFF" transform="translate(42,39)"/>
<path d="M0 0 C89.76 0 179.52 0 272 0 C272 0.66 272 1.32 272 2 C182.24 2 92.48 2 0 2 C0 1.34 0 0.68 0 0 Z " fill="#FFFFFF" transform="translate(172,82)"/>
<path d="M0 0 C3.63 0 7.26 0 11 0 C11 0.66 11 1.32 11 2 C10.01 2 9.02 2 8 2 C8.33 9.59 8.66 17.18 9 25 C12.3 25 15.6 25 19 25 C20.81247921 21.37504158 21.24864042 20.4048294 21.1953125 16.671875 C21.18886719 15.87265625 21.18242187 15.0734375 21.17578125 14.25 C21.15902344 13.425 21.14226562 12.6 21.125 11.75 C21.11597656 10.90953125 21.10695313 10.0690625 21.09765625 9.203125 C21.07415817 7.13529396 21.03828908 5.06761005 21 3 C20.01 2.67 19.02 2.34 18 2 C18 1.34 18 0.68 18 0 C24.27 0 30.54 0 37 0 C37 1.32 37 2.64 37 4 C38.79910077 7.68118734 38.79910077 7.68118734 42 10 C43.20628008 7.66785852 44.1654738 5.50357861 45 3 C44.34 2.67 43.68 2.34 43 2 C43 1.34 43 0.68 43 0 C45.97 0 48.94 0 52 0 C52 0.66 52 1.32 52 2 C51.443125 2.185625 50.88625 2.37125 50.3125 2.5625 C47.03715502 4.59852526 44.41124534 7.37004421 43 11 C44.01891609 14.62734127 45.87336596 17.61965932 47.9375 20.75 C48.44152344 21.52859375 48.94554687 22.3071875 49.46484375 23.109375 C50.94715381 25.28079462 50.94715381 25.28079462 54 26 C54 26.66 54 27.32 54 28 C50.37 28 46.74 28 43 28 C43 26.68 43 25.36 43 24 C41.94082766 22.03615835 41.94082766 22.03615835 40.5 20.25 C39.675 19.1775 38.85 18.105 38 17 C36.35 19.64 34.7 22.28 33 25 C33.66 25.33 34.32 25.66 35 26 C35 26.66 35 27.32 35 28 C32.03 28 29.06 28 26 28 C26 27.34 26 26.68 26 26 C26.59167969 25.74992187 27.18335938 25.49984375 27.79296875 25.2421875 C30.30049545 23.83087159 31.57708309 22.40731008 33.3125 20.125 C33.84488281 19.44695313 34.37726563 18.76890625 34.92578125 18.0703125 C36.18266719 16.096382 36.18266719 16.096382 35.83984375 14.0390625 C34.83877769 11.60856722 33.65830834 9.47135233 32.25 7.25 C31.76015625 6.45078125 31.2703125 5.6515625 30.765625 4.828125 C29.12065991 2.70528798 29.12065991 2.70528798 26.38964844 2.88574219 C25.20677246 2.9422998 25.20677246 2.9422998 24 3 C23.9906543 3.61520508 23.98130859 4.23041016 23.97167969 4.86425781 C23.91788915 7.66031086 23.83426181 10.4547062 23.75 13.25 C23.72873047 14.70212891 23.72873047 14.70212891 23.70703125 16.18359375 C23.46225036 23.2822397 23.46225036 23.2822397 21.296875 26.64453125 C18.49246602 28.2995141 16.74519352 28.50436525 13.5 28.4375 C12.09234375 28.43556641 12.09234375 28.43556641 10.65625 28.43359375 C7.5985129 27.93446314 6.21524172 27.13972212 4 25 C3.03911617 22.11734851 2.88329059 20.32337729 2.90234375 17.33203125 C2.90556641 16.43935547 2.90878906 15.54667969 2.91210938 14.62695312 C2.92048828 13.69818359 2.92886719 12.76941406 2.9375 11.8125 C2.94201172 10.87212891 2.94652344 9.93175781 2.95117188 8.96289062 C2.96295374 6.64186288 2.97940442 4.32096356 3 2 C2.01 2 1.02 2 0 2 C0 1.34 0 0.68 0 0 Z " fill="#FFFFFF" transform="translate(256,9)"/>
<path d="M0 0 C2.97 0 5.94 0 9 0 C11.64 6.27 14.28 12.54 17 19 C19.26157932 13.12233346 19.26157932 13.12233346 21.51733398 7.24243164 C21.79907471 6.51403076 22.08081543 5.78562988 22.37109375 5.03515625 C22.65911865 4.2862915 22.94714355 3.53742676 23.24389648 2.76586914 C24 1 24 1 25 0 C27.67058851 -0.14115161 30.32432238 -0.04247107 33 0 C32.34 0.66 31.68 1.32 31 2 C30.62864085 4.52037964 30.62864085 4.52037964 30.5859375 7.4453125 C30.54726563 8.52167969 30.50859375 9.59804688 30.46875 10.70703125 C30.4378125 11.83496094 30.406875 12.96289062 30.375 14.125 C30.33632813 15.26066406 30.29765625 16.39632812 30.2578125 17.56640625 C30.16332399 20.37743956 30.07776459 23.18846233 30 26 C30.99 26 31.98 26 33 26 C33 26.66 33 27.32 33 28 C29.37 28 25.74 28 22 28 C22 27.34 22 26.68 22 26 C22.99 26 23.98 26 25 26 C24.67 20.06 24.34 14.12 24 8 C21.36 14.6 18.72 21.2 16 28 C15.34 28 14.68 28 14 28 C11.36 21.07 8.72 14.14 6 7 C5.67 12.94 5.34 18.88 5 25 C5.99 25.33 6.98 25.66 8 26 C8 26.66 8 27.32 8 28 C5.69 28 3.38 28 1 28 C0.67 27.34 0.34 26.68 0 26 C1.32 25.67 2.64 25.34 4 25 C4 17.41 4 9.82 4 2 C2.68 1.34 1.36 0.68 0 0 Z " fill="#FFFFFF" transform="translate(293,44)"/>
<path d="M0 0 C2.39652528 -0.08139142 4.79025436 -0.14067009 7.1875 -0.1875 C7.86103516 -0.21263672 8.53457031 -0.23777344 9.22851562 -0.26367188 C13.71415591 -0.32931539 16.40396893 0.31144193 20 3 C21 4 21 4 21.25 6.75 C20.97434074 10.33357037 20.04806115 12.09858004 18 15 C18.99 16.485 18.99 16.485 20 18 C20.53916146 20.6602023 20.73370098 23.29262663 21 26 C22.32 25.67 23.64 25.34 25 25 C24.34 25.99 23.68 26.98 23 28 C19.875 28.1875 19.875 28.1875 17 28 C15.33510818 24.07561214 14.12795963 20.10899581 13 16 C11.35 15.67 9.7 15.34 8 15 C8 18.63 8 22.26 8 26 C8.99 26 9.98 26 11 26 C11 26.66 11 27.32 11 28 C7.37 28 3.74 28 0 28 C0 27.34 0 26.68 0 26 C0.99 26 1.98 26 3 26 C3 18.08 3 10.16 3 2 C2.01 2 1.02 2 0 2 C0 1.34 0 0.68 0 0 Z M8 2 C8 5.63 8 9.26 8 13 C10.91652174 13.16681109 10.91652174 13.16681109 14 13 C16.30746414 11.12226736 16.30746414 11.12226736 16.25 8.0625 C16.23517754 4.82717213 16.23517754 4.82717213 14 2 C10.91634129 1.7497843 10.91634129 1.7497843 8 2 Z " fill="#FFFFFF" transform="translate(336,9)"/>
<path d="M0 0 C2.56364483 -0.10845031 5.12266279 -0.18749744 7.6875 -0.25 C8.40873047 -0.28351562 9.12996094 -0.31703125 9.87304688 -0.3515625 C13.74471266 -0.42227786 15.59615121 -0.24621068 18.9921875 1.82421875 C21 4 21 4 21.4375 7.0625 C21 10 21 10 19 13 C18.34 13 17.68 13 17 13 C17.474375 13.680625 17.94875 14.36125 18.4375 15.0625 C20.2225636 18.41841956 20.63153086 21.24161481 21 25 C21.99 24.67 22.98 24.34 24 24 C24 24.99 24 25.98 24 27 C22.02 27.33 20.04 27.66 18 28 C16.03176479 25.04764719 14.95300261 22.80193957 14.125 19.3125 C13.75375 18.219375 13.3825 17.12625 13 16 C10.525 15.01 10.525 15.01 8 14 C8 17.96 8 21.92 8 26 C8.99 26 9.98 26 11 26 C11 26.66 11 27.32 11 28 C7.37 28 3.74 28 0 28 C0 27.34 0 26.68 0 26 C0.99 26 1.98 26 3 26 C2.89049976 22.0410768 2.75978332 18.08313674 2.625 14.125 C2.57859375 12.43310547 2.57859375 12.43310547 2.53125 10.70703125 C2.49257812 9.63066406 2.45390625 8.55429687 2.4140625 7.4453125 C2.3826416 6.45031738 2.3512207 5.45532227 2.31884766 4.43017578 C2.22752917 1.82145483 2.22752917 1.82145483 0 0 Z M8 1 C8 4.96 8 8.92 8 13 C12.6475092 13.43946905 12.6475092 13.43946905 14.8125 11.875 C16.58904542 9.06992828 16.54024299 7.24145792 16 4 C13.14925356 1.68858396 11.6860549 1 8 1 Z " fill="#FFFFFF" transform="translate(219,44)"/>
<path d="M0 0 C6.93 0 13.86 0 21 0 C21 2.64 21 5.28 21 8 C20.34 8 19.68 8 19 8 C18.34 5.69 17.68 3.38 17 1 C14.03 1 11.06 1 8 1 C8 4.96 8 8.92 8 13 C11.11332248 12.33131686 11.11332248 12.33131686 12.1875 9.9375 C12.455625 9.298125 12.72375 8.65875 13 8 C13.66 8 14.32 8 15 8 C15 11.63 15 15.26 15 19 C14.01 18.67 13.02 18.34 12 18 C11.67 17.01 11.34 16.02 11 15 C10.01 14.67 9.02 14.34 8 14 C8 17.96 8 21.92 8 26 C11.3 26 14.6 26 18 26 C18.2165625 24.576875 18.2165625 24.576875 18.4375 23.125 C19 20 19 20 20 18 C20.66 18 21.32 18 22 18 C22 21.3 22 24.6 22 28 C14.74 28 7.48 28 0 28 C0 27.34 0 26.68 0 26 C0.99 26 1.98 26 3 26 C3 18.08 3 10.16 3 2 C2.01 1.67 1.02 1.34 0 1 C0 0.67 0 0.34 0 0 Z " fill="#FFFFFF" transform="translate(195,44)"/>
<path d="M0 0 C7.26 0 14.52 0 22 0 C22 2.64 22 5.28 22 8 C21.01 8 20.02 8 19 8 C18.34 6.02 17.68 4.04 17 2 C14.03 1.67 11.06 1.34 8 1 C8 4.96 8 8.92 8 13 C9.32 13 10.64 13 12 13 C12.33 11.35 12.66 9.7 13 8 C13.66 8 14.32 8 15 8 C15 11.63 15 15.26 15 19 C14.34 19 13.68 19 13 19 C12.67 17.35 12.34 15.7 12 14 C10.68 14 9.36 14 8 14 C8 17.96 8 21.92 8 26 C11.3 26 14.6 26 18 26 C18.433125 24.2984375 18.433125 24.2984375 18.875 22.5625 C19.24625 21.386875 19.6175 20.21125 20 19 C20.66 18.67 21.32 18.34 22 18 C22 21.3 22 24.6 22 28 C15.07 28 8.14 28 1 28 C0.67 27.34 0.34 26.68 0 26 C0.99 26 1.98 26 3 26 C2.89049976 22.0410768 2.75978332 18.08313674 2.625 14.125 C2.57859375 12.43310547 2.57859375 12.43310547 2.53125 10.70703125 C2.49257813 9.63066406 2.45390625 8.55429687 2.4140625 7.4453125 C2.3826416 6.45031738 2.3512207 5.45532227 2.31884766 4.43017578 C2.22752917 1.82145483 2.22752917 1.82145483 0 0 Z " fill="#FFFFFF" transform="translate(327,44)"/>
<path d="M0 0 C4.36339712 2.22286269 7.23431511 4.38960056 9 9 C9.66541913 14.37264334 9.69575726 18.60848549 7.25 23.5 C2.48030822 28.79965753 2.48030822 28.79965753 -1.078125 29.28125 C-5.86327619 29.47138846 -9.18071137 29.14529652 -13 26 C-16.72582154 21.74191824 -17.3529012 17.85079247 -17.28125 12.3515625 C-16.70400768 7.52517534 -14.43572891 4.23632212 -10.75 1.0625 C-7.09609028 -0.34923785 -3.82830209 -0.67558272 0 0 Z M-9.3125 3.875 C-13.30257861 8.89954343 -12.53861172 14.83588811 -12 21 C-11.03597356 23.89207932 -10.25223501 24.8086362 -8 27 C-5.61391389 28.24401278 -5.61391389 28.24401278 -3 28 C0.48634601 26.37844371 1.84302194 25.23546708 4 22 C4.35709396 18.73947214 4.35709396 18.73947214 4.3125 15.125 C4.32925781 13.91070312 4.34601563 12.69640625 4.36328125 11.4453125 C3.97678403 7.7798227 3.20892121 5.91298125 1 3 C-2.82181054 1.08909473 -5.99317122 1.18365234 -9.3125 3.875 Z " fill="#FFFFFF" transform="translate(377,43)"/>
<path d="M0 0 C2.75105422 -0.10812003 5.49785087 -0.18734945 8.25 -0.25 C9.02730469 -0.28351562 9.80460938 -0.31703125 10.60546875 -0.3515625 C16.39735208 -0.45056905 16.39735208 -0.45056905 19.4921875 1.86328125 C21.26656979 4.37775564 21.84997107 5.92440691 22 9 C21.24327805 11.88930198 20.36562759 13.59218462 18.375 15.8125 C14.84016181 17.5799191 11.92581331 17.19629067 8 17 C8 19.97 8 22.94 8 26 C8.99 26 9.98 26 11 26 C11 26.66 11 27.32 11 28 C7.37 28 3.74 28 0 28 C0 27.34 0 26.68 0 26 C0.99 26 1.98 26 3 26 C2.89049976 22.0410768 2.75978332 18.08313674 2.625 14.125 C2.57859375 12.43310547 2.57859375 12.43310547 2.53125 10.70703125 C2.49257812 9.63066406 2.45390625 8.55429687 2.4140625 7.4453125 C2.3826416 6.45031738 2.3512207 5.45532227 2.31884766 4.43017578 C2.22752917 1.82145483 2.22752917 1.82145483 0 0 Z M8 1 C8 5.62 8 10.24 8 15 C9.98 15 11.96 15 14 15 C16.54624444 12.2073448 17.01302906 10.65145307 16.9375 6.875 C15.85555795 3.55704439 15.07683177 2.58237063 12 1 C10.68 1 9.36 1 8 1 Z " fill="#FFFFFF" transform="translate(172,44)"/>
<path d="M0 0 C1.17046875 0.03609375 2.3409375 0.0721875 3.546875 0.109375 C4.43890625 0.15578125 5.3309375 0.2021875 6.25 0.25 C6.25 2.89 6.25 5.53 6.25 8.25 C5.59 8.25 4.93 8.25 4.25 8.25 C3.899375 7.425 3.54875 6.6 3.1875 5.75 C1.54454132 3.03634201 1.54454132 3.03634201 -0.9453125 2.91796875 C-3.23104671 2.93588203 -5.4747153 3.0353505 -7.75 3.25 C-7.75 4.9 -7.75 6.55 -7.75 8.25 C-4.3806838 10.01889101 -1.11526232 11.47049105 2.5 12.625 C5.33396805 13.67080465 6.06629818 13.97812131 7.8125 16.5625 C8.34731327 19.84778154 8.20242559 22.05257122 7.25 25.25 C5.6796875 27.41796875 5.6796875 27.41796875 3.25 29.25 C0.51317029 29.5411521 -1.78940039 29.63322418 -4.5 29.5 C-5.19738281 29.48195313 -5.89476562 29.46390625 -6.61328125 29.4453125 C-8.32611539 29.39838554 -10.03823824 29.32664605 -11.75 29.25 C-11.75 26.28 -11.75 23.31 -11.75 20.25 C-10.76 20.25 -9.77 20.25 -8.75 20.25 C-8.37875 21.219375 -8.0075 22.18875 -7.625 23.1875 C-6.04650876 26.4982038 -6.04650876 26.4982038 -2.8125 27.25 C0.26111206 27.25 1.71280125 26.90893764 4.25 25.25 C4.25 23.6 4.25 21.95 4.25 20.25 C3.239375 19.816875 2.22875 19.38375 1.1875 18.9375 C0.55457031 18.66421875 -0.07835937 18.3909375 -0.73046875 18.109375 C-2.06056971 17.54337459 -3.39651451 16.99088613 -4.73828125 16.453125 C-9.64375 14.4625 -9.64375 14.4625 -10.75 12.25 C-11.32956639 5.06337679 -11.32956639 5.06337679 -9.15234375 2.0078125 C-5.94988065 -0.33545318 -3.92369938 -0.15694798 0 0 Z " fill="#FFFFFF" transform="translate(435.75,42.75)"/>
<path d="M0 0 C3.63 0 7.26 0 11 0 C11 0.66 11 1.32 11 2 C10.34 2 9.68 2 9 2 C9.78483659 3.48280196 10.57809334 4.9611498 11.375 6.4375 C11.81585938 7.26121094 12.25671875 8.08492187 12.7109375 8.93359375 C13.83418559 11.13466578 13.83418559 11.13466578 16 12 C17.23921302 9.02588876 18.30058404 6.14737182 19 3 C18.34 2.67 17.68 2.34 17 2 C17 1.34 17 0.68 17 0 C19.64 0 22.28 0 25 0 C24.67 0.99 24.34 1.98 24 3 C23.34 3 22.68 3 22 3 C21.731875 3.886875 21.46375 4.77375 21.1875 5.6875 C20 9 20 9 18.46875 11.3125 C16.75024707 14.45699472 16.50808799 16.7527985 16.3125 20.3125 C16.21388672 21.91544922 16.21388672 21.91544922 16.11328125 23.55078125 C16.07589844 24.35902344 16.03851563 25.16726562 16 26 C16.99 26 17.98 26 19 26 C19 26.66 19 27.32 19 28 C15.37 28 11.74 28 8 28 C8 27.34 8 26.68 8 26 C8.99 26 9.98 26 11 26 C11.1245723 16.95961056 8.5095548 10.19369819 3 3 C2.01 2.67 1.02 2.34 0 2 C0 1.34 0 0.68 0 0 Z " fill="#FFFFFF" transform="translate(358,9)"/>
<path d="M0 0 C6.93 0 13.86 0 21 0 C21 2.97 21 5.94 21 9 C20.34 9 19.68 9 19 9 C18.01 6.69 17.02 4.38 16 2 C13.03 1.67 10.06 1.34 7 1 C7 4.96 7 8.92 7 13 C8.98 13 10.96 13 13 13 C13.33 11.35 13.66 9.7 14 8 C14.66 8 15.32 8 16 8 C16 11.96 16 15.92 16 20 C15.34 20 14.68 20 14 20 C13.773125 19.360625 13.54625 18.72125 13.3125 18.0625 C12.879375 17.381875 12.44625 16.70125 12 16 C10.35 15.67 8.7 15.34 7 15 C7 18.63 7 22.26 7 26 C7.99 26 8.98 26 10 26 C10 26.66 10 27.32 10 28 C6.7 28 3.4 28 0 28 C0 27.34 0 26.68 0 26 C0.99 26 1.98 26 3 26 C3 18.08 3 10.16 3 2 C2.01 1.67 1.02 1.34 0 1 C0 0.67 0 0.34 0 0 Z " fill="#FFFFFF" transform="translate(244,44)"/>
<path d="M0 0 C3.63 0 7.26 0 11 0 C10.67 0.66 10.34 1.32 10 2 C9.01 2 8.02 2 7 2 C7.11020857 5.08404808 7.24075814 8.16691192 7.375 11.25 C7.4059375 12.12269531 7.436875 12.99539062 7.46875 13.89453125 C7.50742187 14.73886719 7.54609375 15.58320313 7.5859375 16.453125 C7.6173584 17.22817383 7.6487793 18.00322266 7.68115234 18.80175781 C7.94142989 21.40651322 7.94142989 21.40651322 10 25 C12.97 25 15.94 25 19 25 C20.20029908 22.59940183 20.11459743 21.10639351 20.09765625 18.4296875 C20.09282227 17.08583984 20.09282227 17.08583984 20.08789062 15.71484375 C20.07951172 14.77769531 20.07113281 13.84054688 20.0625 12.875 C20.05798828 11.93011719 20.05347656 10.98523437 20.04882812 10.01171875 C20.03702357 7.67441613 20.02055759 5.33723939 20 3 C19.34 2.67 18.68 2.34 18 2 C18 1.34 18 0.68 18 0 C20.64 0 23.28 0 26 0 C26 0.66 26 1.32 26 2 C25.01 2.495 25.01 2.495 24 3 C23.9906543 3.57967529 23.98130859 4.15935059 23.97167969 4.7565918 C23.9177593 7.40106946 23.83415871 10.04381893 23.75 12.6875 C23.72873047 14.05551758 23.72873047 14.05551758 23.70703125 15.45117188 C23.55560506 19.61539205 23.32507906 22.39541372 21.328125 26.109375 C18.37820427 28.50494821 16.76925886 28.64259675 13 28.5625 C11.96875 28.56378906 10.9375 28.56507812 9.875 28.56640625 C7 28 7 28 4.640625 26.66796875 C1.95294714 22.29729261 2.58462752 17.76205832 2.75 12.75 C2.76804687 11.71875 2.78609375 10.6875 2.8046875 9.625 C2.85177288 7.08238936 2.9175195 4.54166838 3 2 C2.01 2 1.02 2 0 2 C0 1.34 0 0.68 0 0 Z " fill="#FFFFFF" transform="translate(309,9)"/>
<path d="M0 0 C3.63 0 7.26 0 11 0 C9.02 0.99 9.02 0.99 7 2 C7.14104691 4.91697011 7.28764814 7.8334802 7.4375 10.75 C7.47681641 11.575 7.51613281 12.4 7.55664062 13.25 C7.59853516 14.04921875 7.64042969 14.8484375 7.68359375 15.671875 C7.72025146 16.4050293 7.75690918 17.13818359 7.79467773 17.89355469 C8.0040595 20.04164732 8.30882681 21.95352512 9 24 C11.96896279 25.67082039 11.96896279 25.67082039 20 25 C20.33 17.41 20.66 9.82 21 2 C20.01 1.67 19.02 1.34 18 1 C18 0.67 18 0.34 18 0 C20.64 0 23.28 0 26 0 C26 0.66 26 1.32 26 2 C25.01 2 24.02 2 23 2 C23.02618408 2.60996826 23.05236816 3.21993652 23.0793457 3.84838867 C23.18365719 6.62782758 23.24842982 9.40685439 23.3125 12.1875 C23.35439453 13.14720703 23.39628906 14.10691406 23.43945312 15.09570312 C23.52056411 19.78391832 23.55141657 22.21630531 20.79296875 26.13671875 C17.86493519 28.09010618 16.47528455 28.67930132 13 28.625 C12.175 28.63789062 11.35 28.65078125 10.5 28.6640625 C6.64995932 27.64139544 5.29565396 26.2626728 3 23 C2.4007563 19.37327291 2.52759846 15.85047527 2.6875 12.1875 C2.71005859 11.20845703 2.73261719 10.22941406 2.75585938 9.22070312 C2.81460273 6.81222545 2.89667871 4.40690922 3 2 C2.01 1.67 1.02 1.34 0 1 C0 0.67 0 0.34 0 0 Z " fill="#FFFFFF" transform="translate(266,44)"/>
<path d="M0 0 C3.63 0 7.26 0 11 0 C10.34 0.66 9.68 1.32 9 2 C8.62864085 4.52037964 8.62864085 4.52037964 8.5859375 7.4453125 C8.52792969 9.05986328 8.52792969 9.05986328 8.46875 10.70703125 C8.4378125 11.83496094 8.406875 12.96289062 8.375 14.125 C8.31699219 15.82849609 8.31699219 15.82849609 8.2578125 17.56640625 C8.16332399 20.37743956 8.07776459 23.18846233 8 26 C10.97 26 13.94 26 17 26 C17.433125 24.2984375 17.433125 24.2984375 17.875 22.5625 C18.24625 21.386875 18.6175 20.21125 19 19 C19.66 18.67 20.32 18.34 21 18 C21 21.3 21 24.6 21 28 C14.07 28 7.14 28 0 28 C0 27.34 0 26.68 0 26 C0.99 26 1.98 26 3 26 C3 18.08 3 10.16 3 2 C2.01 1.67 1.02 1.34 0 1 C0 0.67 0 0.34 0 0 Z " fill="#FFFFFF" transform="translate(401,44)"/>
<path d="M0 0 C3.63 0 7.26 0 11 0 C11 0.66 11 1.32 11 2 C10.01 2 9.02 2 8 2 C8 9.92 8 17.84 8 26 C10.97 25.67 13.94 25.34 17 25 C17.66 23.02 18.32 21.04 19 19 C19.66 19 20.32 19 21 19 C21 21.97 21 24.94 21 28 C14.07 28 7.14 28 0 28 C0 27.34 0 26.68 0 26 C0.99 26 1.98 26 3 26 C3 18.08 3 10.16 3 2 C2.01 2 1.02 2 0 2 C0 1.34 0 0.68 0 0 Z " fill="#FFFFFF" transform="translate(234,9)"/>
<path d="M0 0 C1.29349365 0.00523682 2.5869873 0.01047363 3.91967773 0.01586914 C4.9496714 0.01799156 4.9496714 0.01799156 6.00047302 0.02015686 C8.20144949 0.0257706 10.40232557 0.03832532 12.60327148 0.05102539 C14.09220231 0.05603863 15.58113473 0.06060184 17.07006836 0.06469727 C20.72700223 0.07574446 24.38387707 0.09301826 28.04077148 0.11352539 C28.53577148 2.58852539 28.53577148 2.58852539 29.04077148 5.11352539 C17.82077148 5.11352539 6.60077148 5.11352539 -4.95922852 5.11352539 C-3.71649127 0.14257639 -3.71649127 0.14257639 0 0 Z " fill="#FFFFFF" transform="translate(68.959228515625,96.886474609375)"/>
<path d="M0 0 C3.63 0 7.26 0 11 0 C10.67 0.66 10.34 1.32 10 2 C9.34 2 8.68 2 8 2 C8 9.92 8 17.84 8 26 C8.99 26 9.98 26 11 26 C11 26.66 11 27.32 11 28 C7.7 28 4.4 28 1 28 C0.67 27.34 0.34 26.68 0 26 C0.99 26 1.98 26 3 26 C2.89049976 22.0410768 2.75978332 18.08313674 2.625 14.125 C2.57859375 12.43310547 2.57859375 12.43310547 2.53125 10.70703125 C2.49257813 9.63066406 2.45390625 8.55429687 2.4140625 7.4453125 C2.3826416 6.45031738 2.3512207 5.45532227 2.31884766 4.43017578 C2.22752917 1.82145483 2.22752917 1.82145483 0 0 Z " fill="#FFFFFF" transform="translate(388,44)"/>
<path d="M0 0 C1.3303125 0.2784375 1.3303125 0.2784375 2.6875 0.5625 C5.85178811 0.98042484 7.94839642 0.80777742 11 0 C12.04005702 3.38018531 12.08004482 6.4780279 12 10 C10.02 10 8.04 10 6 10 C6.64544429 6.51460083 8.10134397 3.97180943 10 1 C9.34 1 8.68 1 8 1 C8 1.99 8 2.98 8 4 C7.34 4 6.68 4 6 4 C5.34 5.98 4.68 7.96 4 10 C2.35 9.67 0.7 9.34 -1 9 C-1.80967438 6.08517222 -2.21845993 4.53886783 -1.0625 1.6875 C-0.711875 1.130625 -0.36125 0.57375 0 0 Z M1 1 C1 3.31 1 5.62 1 8 C1.66 8 2.32 8 3 8 C3 5.69 3 3.38 3 1 C2.34 1 1.68 1 1 1 Z M9 6 C8.67 6.66 8.34 7.32 8 8 C8.99 8 9.98 8 11 8 C11 7.34 11 6.68 11 6 C10.34 6 9.68 6 9 6 Z " fill="#FFFFFF" transform="translate(317,95)"/>
<path d="M0 0 C2.31 0 4.62 0 7 0 C6.67 0.99 6.34 1.98 6 3 C6 2.34 6 1.68 6 1 C5.01 1 4.02 1 3 1 C3.66 1.66 4.32 2.32 5 3 C4.46428571 6.53571429 4.46428571 6.53571429 3 8 C3.99 8 4.98 8 6 8 C6 7.34 6 6.68 6 6 C10 7 10 7 14 8 C14 8.66 14 9.32 14 10 C9.38 10 4.76 10 0 10 C0 6.7 0 3.4 0 0 Z " fill="#FFFFFF" transform="translate(279,95)"/>
<path d="M0 0 C4.70588235 0.70588235 4.70588235 0.70588235 6 2 C5.71269945 4.33944736 5.38063221 6.6739143 5 9 C1.25 10.125 1.25 10.125 -1 9 C-1.09765625 2.84765625 -1.09765625 2.84765625 -1 1 C-0.67 0.67 -0.34 0.34 0 0 Z M2 1 C0.64381501 2.12534105 0.64381501 2.12534105 0.9375 5.0625 C0.958125 6.031875 0.97875 7.00125 1 8 C1.99 8.495 1.99 8.495 3 9 C3.67801034 6.09926819 3.67801034 6.09926819 4 3 C3.34 2.34 2.68 1.68 2 1 Z " fill="#FFFFFF" transform="translate(331,95)"/>
<path d="M0 0 C1.65 0.33 3.3 0.66 5 1 C4.835 1.639375 4.67 2.27875 4.5 2.9375 C3.83303728 5.6887212 4.29179277 7.25569698 5 10 C3.02 10 1.04 10 -1 10 C-0.49396008 7.83125748 -0.00016187 6.00032373 1 4 C0.34 4 -0.32 4 -1 4 C-0.67 2.68 -0.34 1.36 0 0 Z " fill="#FFFFFF" transform="translate(310,95)"/>
<path d="M0 0 C2.64 0 5.28 0 8 0 C8 0.99 8 1.98 8 3 C7.34 3 6.68 3 6 3 C6 5.31 6 7.62 6 10 C4.68 10 3.36 10 2 10 C2 7.36 2 4.72 2 2 C1.01 2.495 1.01 2.495 0 3 C0 2.01 0 1.02 0 0 Z " fill="#FFFFFF" transform="translate(294,95)"/>
<path d="M0 0 C1.65 0 3.3 0 5 0 C4.67 0.99 4.34 1.98 4 3 C4 2.34 4 1.68 4 1 C3.01 1 2.02 1 1 1 C2.25541557 3.51083114 3.50063488 3.87125446 6 5 C5.67 5.99 5.34 6.98 5 8 C3.02 6.68 1.04 5.36 -1 4 C-0.67 2.68 -0.34 1.36 0 0 Z " fill="#FFFFFF" transform="translate(288,95)"/>
</svg>
